<svg width="218" height="53" fill="none" xmlns="http://www.w3.org/2000/svg"><g clip-path="url(#clip0_86937_11)"><path d="M83.572 6.57c.964.385 1.94.74 2.885 1.174.884.402 1.748.88 2.493 1.26.492-.435.955-.881 1.453-1.265a7.307 7.307 0 015.705-1.544c1.312.13 2.57.586 3.66 1.326a7.34 7.34 0 012.54 3.2.33.33 0 01-.056.273c-.23.293-.475.566-.696.82.699.312 1.406.588 2.063.928 2.358 1.262 3.619 3.228 3.884 5.87a.347.347 0 01-.028.236.35.35 0 01-.172.166c-.59.293-1.179.622-1.724.915l1.093.66a.746.746 0 01-.15.194c-.171.112-.36.194-.534.294-.368.231-.728.47-1.093.704a5.325 5.325 0 00-3.716-.27c.07.704.279 1.387.616 2.01a.255.255 0 00-.085.018c-.917.528-1.833 1.062-2.753 1.582-.268.152-.554.27-.83.402l-.422-.784c-.118.05-.206.085-.295.126a5.292 5.292 0 00-2.596 2.72 1.433 1.433 0 00-.274.092c-.43.243-.854.502-1.288.742-.27.147-.553.267-.834.402l.24-1.053c-.38.1-.746.184-1.106.293a.344.344 0 01-.421-.132 7.197 7.197 0 01-1.792-5.67 1.303 1.303 0 000-.155c-.294.138-.54.276-.807.378-.056.018-.114.024-.172.018a.418.418 0 01-.164-.053c-2.063-1.582-3.068-3.668-2.947-6.257.077-1.822.59-3.5 1.833-4.9.033-.051.062-.104.088-.159a35.798 35.798 0 00-6.662-2.538c.068-.089.118-.209.206-.262.81-.472 1.63-.93 2.44-1.402.15-.108.29-.228.418-.358zm21.874 11.232c-.23-.49-.418-.984-.681-1.433-.651-1.124-1.682-1.793-2.852-2.297a5.37 5.37 0 00-4.064-.13c-.265.094-.277.206-.206.452.763 2.61 3.831 4.065 5.932 3.906a4.892 4.892 0 001.871-.498zm-10.673-.153c-.103.041-.177.067-.248.1-1.588.742-2.51 2.016-3.005 3.665a5.378 5.378 0 00.38 4.223c.094.185.191.252.383.138.33-.171.65-.361.958-.57 1.782-1.417 2.445-3.31 2.275-5.52a4.37 4.37 0 00-.743-2.036zm-3.374-8.173c1.739 2.934 6.648 3.243 8.578 1.045-1.585-2.697-6.27-3.346-8.578-1.045zm-2.75 10.726a4.59 4.59 0 001.265-1.156c1.067-1.397 1.3-3 1.102-4.696a1.417 1.417 0 00-.265-.813c-.534-.51-1.138-.95-1.712-1.414-2.11 1.643-2.614 6.034-.39 8.08zm8.888.971l-.38 1.682 1.102-.326-.722-1.356zm2.87-1.467l-1.58-.778.62 1.174.96-.396zm-7.42-3.366l.543-.293-.47-.558-.073.851zm2.558-1.96l.056-.027-.085-.493-.525-.067.554.587z" fill="#C89148"/><path d="M4.008 27.88c-.525-.17-.51-.17-.528-.705a7.145 7.145 0 01.743-3.463 6.76 6.76 0 012.62-2.875c.51-.294 1.001-.629 1.505-.945l-.153-.062c.085-.106.15-.247.26-.311.432-.264.883-.5 1.32-.76.203-.136.4-.282.589-.438.312-.02.624-.023.934-.061a6.198 6.198 0 003.536-1.676c.414-.45.791-.931 1.129-1.44a.693.693 0 00.194-.039c.354-.205.695-.425 1.055-.62.36-.193.757-.378 1.137-.566l-.08.54.573-.64h-.277c.058-.093.13-.177.215-.249.627-.364 1.258-.725 1.883-1.083 1.608-.921 3.218-1.843 4.83-2.764 1.744-1.004 3.485-2.008 5.224-3.014.244-.14.465-.329.695-.493.91-.214 1.816-.473 2.735-.628 1.179-.2 2.357-.355 3.536-.452a20.32 20.32 0 012.38.02c.664.021 1.33.062 1.993.133.619.064 1.238.176 1.853.264-.066.08-.142.153-.227.214-1.043.605-2.095 1.2-3.135 1.81a1.4 1.4 0 00-.294.318c-.43 0-.86.026-1.288.02a.742.742 0 00-.59.244c-.683.692-1.385 1.37-2.08 2.054a2.574 2.574 0 00-.504.15c-1.01.569-2.015 1.153-3.023 1.731-.162-.417-.333-.83-.478-1.253a.354.354 0 01.11-.293c.618-.628 1.249-1.245 1.874-1.864a1.36 1.36 0 00.22-.293c-2.766.457-5.304 1.526-7.838 2.732a6.482 6.482 0 011.591 2.764c-.25.118-.506.232-.754.361-.336.17-.666.352-.999.531a5.278 5.278 0 00-1.364-2.42c-.295-.294-.295-.294-.616-.021-.377.293-.766.587-1.129.907a1.273 1.273 0 00-.418.548 4.756 4.756 0 00-.203 1.31c.017.618.135 1.232.209 1.848a1.3 1.3 0 00-.295.073c-.41.223-.813.45-1.211.693-.345.208-.678.437-1.014.657a81.25 81.25 0 01-1.084-.642c-.183-.112-.315-.074-.386.126-.203.557-.4 1.118-.59 1.675-.344.176-.698.335-1.034.526-1.096.619-2.186 1.25-3.28 1.875-.556.32-1.12.631-1.68.945l.296-1.13c.047-.197-.045-.293-.23-.323a5.772 5.772 0 00-2.187-.061c-1.285.229-2.357.927-3.277 1.784a4.88 4.88 0 00-1.402 2.58c-.136.587-.142.587.439.754a.63.63 0 01-.127.15c-.386.228-.79.43-1.16.677-.272.18-.626.215-.743.57zm10.431-7.789l.59-1.086-.048-.055-1.5.757.958.384zm6.483-3.733l-.136-.88-.504.534.64.346z" fill="#E8B779"/><path d="M57.228 44.078c.124-.684.242-1.37.369-2.054.23-1.205.462-2.411.695-3.618.295-1.532.61-3.061.908-4.593.642-3.287 1.28-6.574 1.915-9.86.262-1.35.53-2.7.796-4.05.075-.017.15-.04.22-.071 1.627-.933 3.242-1.872 4.88-2.803.111-.04.228-.064.346-.067-.759.632-1.517 1.262-2.275 1.89.03.06.063.119.1.176a58.382 58.382 0 015.516 10.386c.68 1.658 1.37 3.319 2.063 4.989a4.02 4.02 0 00-.454.176c-.513.273-1.02.554-1.526.833-.549-1.273-1.076-2.556-1.65-3.815-1.097-2.4-2.193-4.801-3.342-7.172-.44-.904-1.029-1.732-1.55-2.595-.03-.046-.07-.087-.142-.176-.191.799-.389 1.547-.548 2.304-.807 3.81-1.609 7.624-2.404 11.445-.31 1.503-.59 3.014-.884 4.52-.157.792-.33 1.581-.49 2.374-.035.17-.047.346-.07.52-.59.313-1.155.633-1.739.941-.241.097-.5.206-.734.32z" fill="#C79046"/><path d="M104.904 21.79c.365-.235.725-.472 1.093-.704.174-.109.363-.191.534-.294a.746.746 0 00.15-.193 7.086 7.086 0 012.341 2.054 7.044 7.044 0 011.23 2.855c.094.665.137 1.336.127 2.008a.345.345 0 01-.189.24 7.034 7.034 0 01-2.61.71 2.44 2.44 0 00-.266.056l1.008 1.118a3.67 3.67 0 01-.404.344c-.394.258-.798.504-1.199.754a5.593 5.593 0 00-2.18-1.643 4.994 4.994 0 00-2.028-.39c-.026.14-.05.252-.068.369a1.668 1.668 0 000 .173 5.305 5.305 0 00.926 3.375c-.457.258-.908.522-1.371.772-.324.173-.66.32-.99.478-.218-.552-.439-1.1-.657-1.652-.1-.255-.262-.294-.471-.126l-1.491 1.13a.695.695 0 00-.195.038c-.636.36-1.276.716-1.903 1.088-.351.206-.684.438-1.026.66l-.085.024c-.855.247-.86.253-1.4-.452a6.8 6.8 0 01-1.473-4.058c0-.57.08-1.139.123-1.708.28-.135.563-.256.834-.402.434-.241.858-.5 1.288-.743.088-.04.18-.07.274-.09a6.07 6.07 0 01-.082.249c-.369 1.018-.628 2.054-.44 3.149.11.713.367 1.395.755 2.004a.49.49 0 00.103-.02c.118-.048.233-.102.345-.162 2.063-1.118 2.861-2.982 3.03-5.189a5.096 5.096 0 00-.41-2.08c.276-.132.562-.25.83-.402.92-.52 1.836-1.054 2.753-1.582a.255.255 0 01.085-.018 6.371 6.371 0 002.254 2.184 5.316 5.316 0 004.058.719c.239-.05.295-.147.265-.376a5.37 5.37 0 00-1.385-2.764 9.314 9.314 0 00-2.083-1.503zm-4.783 8.068c.295-.05.339-.215.157-.623l-.157.623z" fill="#D39E59"/><path d="M67.356 16.96a1.072 1.072 0 00-.345.067c-1.63.93-3.241 1.87-4.88 2.802-.071.03-.145.054-.22.07a4.716 4.716 0 011.56-2.97 37.028 37.028 0 013.879-3.048c1.022-.737 2.013-1.523 3.067-2.328-.156-.076-.244-.123-.335-.164-1.226-.546-2.452-1.097-3.681-1.634-.197-.086-.236-.17-.156-.373.393-.998.779-2 1.158-3.008a.476.476 0 01.342-.314c1.13-.366 2.298-.6 3.483-.699a38.903 38.903 0 014.635-.223c2.553.068 5.081.518 7.5 1.336.07.028.14.06.209.096a3.311 3.311 0 01-.43.358c-.81.473-1.63.93-2.44 1.403-.089.053-.139.173-.207.261l-1.117-.217-.07.088.548.461c-.18.097-.36.194-.533.294l-1.707 1.01c-.704-.696-1.411-1.386-2.107-2.087a.72.72 0 00-.542-.23 24.537 24.537 0 00-4.228.191c-.496.07-.99.165-1.474.247v.076l5.779 2.51c-.083.07-.139.12-.2.167-1.194.924-2.39 1.845-3.575 2.776-1.32 1.024-2.61 2.054-3.913 3.081z" fill="#CF9A53"/><path d="M24.57 22.655a7.114 7.114 0 01-1.88 5.35.34.34 0 01-.273.068c-.39-.091-.77-.203-1.179-.311.106.472.233.921.295 1.376a6.483 6.483 0 01-.248 3.143c-.11.034-.219.076-.324.126-.713.405-1.42.816-2.133 1.221-.76.434-1.527.88-2.29 1.297a5.656 5.656 0 00-1.394-2.054 5.04 5.04 0 00-1.408-.919 4.703 4.703 0 00-.923 2.87c.08.725.2 1.444.363 2.154-.101.02-.2.052-.295.094-.59.344-1.178.696-1.768 1.045l-.433-.552c-.268-.325-.271-.325-.59-.067l-.294.25a5.792 5.792 0 00-1.303 1.921.772.772 0 00-.25.044c-.295.153-.569.33-.86.488-.372.2-.752.387-1.126.587a6.853 6.853 0 011.2-3.293c.088-.13.182-.255.27-.385a.264.264 0 00.024-.073 6.833 6.833 0 01-1.06.173c-.761 0-1.521-.03-2.285-.061a.295.295 0 01-.206-.156 7.134 7.134 0 01-.463-2.656.868.868 0 00.221-.05c.392-.223.775-.457 1.18-.675.217-.123.45-.22.677-.328a5.01 5.01 0 000 2.054 4.626 4.626 0 002.11-.45c2.062-1.047 3.333-2.664 3.562-5.012.141-.03.279-.075.41-.134.813-.461 1.615-.937 2.428-1.394.342-.191.704-.35 1.058-.526a6.98 6.98 0 001.12 3.34A5.08 5.08 0 0018.825 33a5.032 5.032 0 00.763-3.542 6.616 6.616 0 00-1.423-3.322c.25-.153.498-.311.751-.452.451-.253.908-.496 1.361-.743l1.256.805c.224.146.353.079.477-.153.306-.61.513-1.265.613-1.94.19-.07.378-.149.56-.238.471-.232.928-.504 1.388-.76zm-10.784 7.217l-.186-.634c-.17.496-.153.569.186.634z" fill="#DAA764"/><path d="M46.444 27.82c-.524 1.174-1.072 2.325-1.565 3.504-1.343 3.228-2.687 6.436-3.98 9.685a10.786 10.786 0 00-.549 5.851c.25 1.52.48 3.047.716 4.57a.878.878 0 010 .155h-2.372c-.135-.725-.259-1.444-.41-2.157a29.157 29.157 0 00-3.512-8.93 884.597 884.597 0 00-1.895-3.175c-.044-.077-.094-.147-.156-.24l-1.889.897c-.085-.235-.159-.431-.232-.63a.836.836 0 00.194-.06c.967-.551 1.927-1.106 2.89-1.66.805-.461 1.604-.928 2.414-1.383a1.26 1.26 0 01.374-.073l-1.874 1.705 3.536 5.87c.039-.086.077-.171.112-.259.902-2.236 1.792-4.475 2.706-6.706.713-1.76 1.455-3.495 2.183-5.244a.947.947 0 00.28-.062c.687-.39 1.364-.795 2.063-1.174.318-.193.645-.331.966-.484z" fill="#C79047"/><path d="M77.61 10.23l1.707-1.01c.173-.102.353-.2.533-.293.563.557 1.129 1.112 1.686 1.678a.294.294 0 01.073.226c-.294.813-.607 1.623-.952 2.53l-.948-1.1c-.416.437-.778.792-1.106 1.173a13.951 13.951 0 00-3.323 7.337c-.66 5.186 1.108 9.459 5.062 12.863l.218.193c-.22.153-.436.317-.666.452-.483.294-.975.558-1.473.837-.43-.4-.884-.778-1.288-1.2-3.604-3.78-5.142-8.25-4.482-13.441a15.45 15.45 0 013.08-7.525c.648-.854 1.384-1.64 2.098-2.477l-.219-.243z" fill="#C89148"/><path d="M18.346 13.913c-.38.188-.767.364-1.138.566-.371.203-.707.414-1.055.62a.691.691 0 01-.194.038c.123-.344.25-.69.374-1.027-2.758-1.491-7.199.534-7.818 3.727.038.026.08.047.124.061l1.733.417a7.235 7.235 0 01-.59.437c-.433.261-.884.496-1.32.76-.109.065-.174.206-.26.311-.565-.293-1.137-.57-1.694-.88a.35.35 0 01-.126-.294 7.253 7.253 0 011.676-4.173c1.105-1.326 2.57-2.08 4.188-2.585.035 0 .07-.032.126-.056-.247-.293-.492-.566-.71-.86a.396.396 0 01-.047-.334c.884-2.008 2.328-3.428 4.42-4.109 2.092-.68 4.226-.678 6.253.373a7.52 7.52 0 012.499 2.192c.66-.35 1.3-.707 1.957-1.03a28.355 28.355 0 014.49-1.82c.056-.015.114-.026.171-.032-.23.165-.45.352-.695.493a1798.23 1798.23 0 01-5.219 3.014 1224.28 1224.28 0 01-4.83 2.765c-.624.358-1.255.719-1.877 1.082a1.12 1.12 0 00-.215.25l-.223.094zm-.758-1.94l1-.114a5.246 5.246 0 003.806-2.193.215.215 0 00.034-.278.215.215 0 00-.075-.068 5.667 5.667 0 00-1.954-1.048 6.337 6.337 0 00-3.032-.055 5.173 5.173 0 00-3.362 2.124c-.11.15-.112.244.038.364a5.557 5.557 0 003.545 1.268z" fill="#EFC084"/><path d="M20.282 24.945c-.453.246-.91.49-1.361.742a16.45 16.45 0 00-.752.452 5.598 5.598 0 00-1.989-1.38c-.02.033-.04.057-.055.083a5.35 5.35 0 00-.766 2.982c-.354.176-.717.334-1.059.525-.813.458-1.614.933-2.428 1.394a1.95 1.95 0 01-.41.135c0-.294-.032-.564-.026-.845.006-.282-.112-.355-.377-.332a5.19 5.19 0 00-2.752.98 6.53 6.53 0 00-2.505 3.607c-.227.109-.46.205-.678.329-.392.217-.775.452-1.178.675a.868.868 0 01-.221.05 7.064 7.064 0 011.644-4.502c.36-.438.748-.851 1.158-1.315a7.393 7.393 0 01-2.52-.646c.11-.349.472-.384.722-.551.372-.247.775-.45 1.161-.678a.632.632 0 00.127-.15c.93.172 1.89.08 2.77-.267 1.603-.675 2.911-1.681 3.59-3.343.56-.314 1.122-.625 1.679-.945 1.093-.625 2.183-1.256 3.28-1.875.336-.19.69-.349 1.034-.525-.028.627-.007 1.255.062 1.878a6.055 6.055 0 001.85 3.522zm-4.664-2.416l1.122.332-.389-1.684-.733 1.352z" fill="#E2B070"/><path d="M11.098 38.104c.59-.35 1.179-.702 1.768-1.045a1.37 1.37 0 01.295-.094c.439 1.576 1.473 2.612 2.923 3.33.58-.833.901-1.82.922-2.834.035-.88-.236-1.705-.483-2.533.763-.431 1.53-.862 2.29-1.297.713-.405 1.42-.816 2.133-1.22.105-.05.213-.093.324-.127a6.445 6.445 0 01-1.12 2.187c-.15.214-.333.402-.489.61a.315.315 0 01-.4.12c-.219-.07-.443-.117-.69-.182.254.78.387 1.593.395 2.413a7.19 7.19 0 01-2.107 4.988.403.403 0 01-.327.065 7.428 7.428 0 01-2.608-1.215c-.068.572-.097 1.127-.21 1.664-.492 2.404-1.888 4.109-4.092 5.183a.296.296 0 01-.26 0 7.226 7.226 0 01-3.124-4.801 8.312 8.312 0 010-2.521c.375-.197.755-.385 1.126-.587.295-.159.57-.335.86-.487a.772.772 0 01.251-.044c-.103.472-.224.942-.294 1.417a5.32 5.32 0 001.49 4.742c.071-.05.133-.082.186-.123 1.821-1.467 2.266-3.419 1.998-5.617a5.24 5.24 0 00-.757-1.992z" fill="#D29D57"/><path d="M100.996 33.874c.33-.158.666-.293.99-.478.463-.25.914-.514 1.371-.772.439.484.842 1.01 1.323 1.447a5.073 5.073 0 003.17 1.262c.148 0 .295.023.313-.2a5.52 5.52 0 00-.316-2.614 6.632 6.632 0 00-1.116-1.779c.4-.25.804-.496 1.199-.754.139-.106.27-.222.392-.346a6.72 6.72 0 011.647 3.16 7.045 7.045 0 01-.28 4.147.383.383 0 01-.107.131.383.383 0 01-.152.074 7.183 7.183 0 01-3.091-.085 1.245 1.245 0 00-.142-.032h-.079l.15.27a1.445 1.445 0 01-.295.382c-.409.264-.839.492-1.261.736a5.58 5.58 0 00-1.22-1.153 5.494 5.494 0 00-1.408 2.394 3.879 3.879 0 00-.513.206 329.126 329.126 0 00-3.68 2.125 7.078 7.078 0 00-.699.534 5.605 5.605 0 01-.439-.397 6.503 6.503 0 01-1.526-2.752 4.92 4.92 0 00.453-.182 54.17 54.17 0 001.306-.713c.208.514.418 1.028.63 1.54.086.212.207.256.428.135a5.117 5.117 0 002.272-2.265 6.505 6.505 0 00.68-4.02z" fill="#DEAD6C"/><path d="M160.118 17.734c.168-.645.321-1.238.477-1.828.348-1.335.699-2.674 1.044-4.012.191-.733.371-1.467.554-2.207.123-.49.17-.528.665-.53h.885c.247 0 .344.084.344.346v10.591c0 .37-.02.39-.406.393h-.472c-.404 0-.418-.018-.418-.408v-7.953a.811.811 0 00-.05-.334c-.101.399-.201.798-.295 1.194l-1.456 5.984c-.103.434-.2.88-.324 1.3-.023.088-.159.144-.244.211h-.059c-.758 0-.761 0-.94-.719-.621-2.53-1.241-5.061-1.86-7.595a1.133 1.133 0 00-.132-.37v8.305c0 .353-.027.38-.389.38h-.619a.296.296 0 01-.348-.341V9.667c0-.45.059-.51.501-.51h1.061c.191 0 .295.034.345.255.336 1.4.689 2.793 1.046 4.187.34 1.32.682 2.64 1.028 3.956.003.053.024.082.062.18zm-34.406-5.978v8.276c0 .449 0 .449-.463.452h-.56c-.189 0-.295-.083-.277-.294.018-.211 0-.431 0-.645V9.567c0-.4.015-.411.416-.414.4-.003.727.015 1.09 0a.316.316 0 01.368.293c.277 1.123.557 2.246.84 3.37.393 1.565.786 3.122 1.179 4.671.017.07.05.138.1.294.171-.646.327-1.218.474-1.79.556-2.166 1.111-4.334 1.665-6.503.056-.223.156-.326.404-.312.354.024.707 0 1.061 0 .353 0 .415.088.415.423v10.418c0 .423-.065.484-.498.487h-.589c-.198 0-.295-.053-.274-.264.015-.378 0-.763 0-1.144v-7.293h-.038c-.183.74-.369 1.467-.549 2.216l-1.261 5.241c-.07.293-.144.604-.206.91a.294.294 0 01-.295.293 3.886 3.886 0 01-.589 0 .323.323 0 01-.295-.293 390.024 390.024 0 00-1.052-4.402l-.884-3.598c-.038-.147-.073-.294-.109-.443l-.073.029zm30.934 13.852c.141 0 .227-.018.315-.018h4.564c.277 0 .322.094.319.337v9.564c0 .376 0 .376.386.376h1.12c.179 0 .268.035.265.24v2.583c0 .18-.062.24-.239.235h-.825c-.18 0-.242-.056-.239-.238V37.34c0-.176-.053-.24-.235-.24h-6.601c-.201 0-.248.076-.245.258v1.203c0 .252-.065.39-.35.364a5.728 5.728 0 00-.708 0c-.173 0-.244-.047-.241-.232v-2.582c0-.203.076-.259.262-.244.186.015.295 0 .442 0 .722.05.981-.34 1.179-.88a5.39 5.39 0 00.191-1.148c.089-.8.166-1.602.233-2.406.05-.587.083-1.174.127-1.746.073-.978.153-1.955.227-2.935.02-.379.032-.748.053-1.144zm.362 10.212c.036.016.074.03.112.038h3.035c.201 0 .212-.102.212-.258v-8.649c0-.22-.085-.258-.277-.255-.589 0-1.158.015-1.738 0-.254 0-.327.109-.345.32-.038.525-.079 1.048-.118 1.57-.059.766-.118 1.53-.174 2.295-.082 1.112-.141 2.23-.247 3.343-.05.543-.083 1.106-.46 1.596z" fill="#E9AB4E"/><path d="M52.858 24.475a2702.367 2702.367 0 012.634 13.496c.2 1.033.369 2.072.56 3.105.192 1.033.392 2.034.59 3.05.035.178.085.357.126.533-.365.197-.73.396-1.099.587-.294.162-.613.314-.922.473-.156-.807-.316-1.611-.472-2.419-.415-2.165-.819-4.331-1.25-6.494-.692-3.445-1.402-6.888-2.103-10.33-.059-.293-.118-.587-.18-.88.33-.18.657-.364.99-.54.333-.176.749-.39 1.126-.581z" fill="#C79047"/><path d="M52.858 24.475c-.377.19-.754.381-1.126.587-.371.205-.66.36-.99.54l-.648-2.712c-.097-.405-.194-.81-.295-1.244-1.414 1.925-2.357 4.064-3.356 6.163-.321.152-.648.293-.958.46-.69.385-1.367.79-2.063 1.174a.953.953 0 01-.28.062 54.408 54.408 0 013.537-7.26c.669-1.148 1.385-2.269 2.092-3.422l-.693-.587c.067-.079.14-.15.221-.214.342-.209.693-.4 1.035-.608.341-.208.618-.39.928-.587a4.803 4.803 0 011.685 2.902l.884 4.567c.013.059.021.119.027.179z" fill="#D09B55"/><path d="M172.134 33.455c0-.147-.036-.293-.036-.44v-7.07c0-.446.095-.534.549-.54.804 0 .804 0 .804.772v10.271c0 .294-.08.388-.36.353a1.582 1.582 0 00-.5 0c-.375.073-.534-.115-.661-.432-.789-2.004-1.594-4.003-2.395-6.001-.185-.47-.394-.931-.628-1.38v7.481c0 .276-.082.358-.348.337a6.549 6.549 0 00-.795 0c-.168 0-.236-.058-.218-.223V26.08c0-.607.056-.666.663-.666h.235a.564.564 0 01.61.41c.94 2.46 1.898 4.91 2.853 7.364.038.1.085.194.13.293l.097-.026zm40.232-20.778c-.416 1.019-.837 2.034-1.247 3.053-.589 1.493-1.178 2.99-1.797 4.478-.044.105-.186.179-.295.246a.38.38 0 01-.2.027c-.313 0-.622-.03-.931-.044 0-.294-.027-.587-.027-.88V9.49c0-.264.062-.375.342-.343.196.01.393.01.589 0 .348 0 .431.085.431.437v7.607l.053.018c.159-.408.321-.816.48-1.227l2.569-6.565a.35.35 0 01.392-.264h.708c.235 0 .341.082.341.35v10.623c0 .272-.117.34-.344.349h-.059c-.295 0-.71.094-.884-.062-.174-.155-.08-.563-.08-.86v-6.867l-.041-.009zM143.689 30.84a1.719 1.719 0 011.53 1.673c.032.742.076 1.485.05 2.224-.03.81-.242 1.576-1.12 1.878a4.54 4.54 0 01-1.317.232c-1.04.033-2.081 0-3.121 0-.359 0-.383-.026-.383-.387V25.927c0-.293.08-.36.363-.355h3.356a2.305 2.305 0 011.597.552 1.756 1.756 0 01.513 1.327 9.952 9.952 0 01-.062 1.866 1.653 1.653 0 01-1.406 1.523zm-2.834 2.89v1.961c0 .244.082.294.294.294.498-.015.999 0 1.5 0a.905.905 0 00.955-.623c.074-.198.117-.407.129-.619.015-.684 0-1.367 0-2.054a1.126 1.126 0 00-.333-.842 1.13 1.13 0 00-.845-.332h-1.474c-.197 0-.253.065-.25.252.024.655.024 1.31.024 1.964zm0-5.238v1.729c0 .223.047.317.294.293.422-.02.843 0 1.264 0a1.126 1.126 0 001.209-1.036c.07-.668.088-1.341.053-2.013a1.028 1.028 0 00-1.111-1.004h-1.441c-.212 0-.268.071-.266.274-.002.587-.002 1.173-.002 1.757z" fill="#E9AB4E"/><path d="M36.484 34.16a1.234 1.234 0 00-.375.072c-.81.455-1.608.922-2.413 1.383-.963.554-1.924 1.109-2.89 1.66a.835.835 0 01-.195.06l-.59-1.515c.731-.408 1.456-.763 2.128-1.197 3.607-2.316 5.726-5.617 6.483-9.808.041-.229.074-.46.109-.693.5-.275 1.002-.554 1.509-.824.374-.2.754-.39 1.131-.587-.015.39-.017.78-.041 1.174a15.08 15.08 0 01-2.03 6.635 15.974 15.974 0 01-2.826 3.64z" fill="#CF9A53"/><path d="M78.433 35.105c.486-.294.978-.55 1.473-.837.23-.135.445-.293.666-.452.537.361 1.058.743 1.612 1.075.554.331 1.117.586 1.704.91-.272.7-.543 1.405-.832 2.162l-1.9-.895c-1.129 1.843-2.29 3.66-3.242 5.602a.865.865 0 00-.28.062c-.96.546-1.912 1.1-2.876 1.643-.332.191-.686.35-1.03.523-.072-.667-.09-1.341-.225-1.99-.162-.79-.427-1.555-.648-2.33l-.068-.253.931-.48 1.035-.523c.33.819.657 1.64.972 2.424l3.577-5.908-.869-.733z" fill="#D09B54"/><path d="M180.406 14.82v5.162c0 .44-.062.5-.516.502h-.648c-.253 0-.377-.085-.374-.378v-9.48c0-.272-.062-.372-.354-.363-.674.023-1.355.014-2.033 0-.191 0-.265.04-.277.255-.065.989-.153 1.978-.227 2.964-.047.64-.076 1.283-.124 1.922-.07.998-.138 1.999-.232 2.994a5.428 5.428 0 01-.248 1.305 1.11 1.11 0 01-1.081.72c-.262.03-.524.043-.787.04-.124 0-.33-.146-.333-.231 0-.206.029-.552.147-.587.684-.294.769-.86.822-1.468.095-1.006.159-2.016.236-3.022.024-.329.044-.66.062-.99.041-.777.074-1.557.124-2.332.05-.825.118-1.65.171-2.474 0-.22.162-.209.312-.209h4.833c.459 0 .515.056.515.529l.012 5.141zm9.252-.02V9.516c0-.293.118-.361.36-.364.241-.003.551.015.825 0 .274-.015.294.062.294.294v4.226c0 .278.065.37.354.36.737-.02 1.473-.02 2.21 0 .295 0 .339-.09.336-.349v-3.99c0-.465.074-.538.545-.538.236 0 .472 0 .707.018.236.017.295.114.295.34-.018.646 0 1.291 0 1.937v8.654c0 .264-.103.358-.324.367-.295.015-.59.015-.884 0-.295 0-.336-.214-.336-.452v-4.634c0-.193-.065-.252-.256-.25h-2.387c-.221 0-.254.092-.254.294v4.722c0 .261-.056.376-.339.346-.282-.029-.489 0-.736 0-.369 0-.404-.04-.404-.399l-.006-5.3zm-35.544-.08c0 1.077.032 2.154 0 3.228a5.823 5.823 0 01-.312 1.561 1.467 1.467 0 01-.94.913 5.326 5.326 0 01-3.221.068c-.831-.241-1.223-.828-1.344-1.62a12.703 12.703 0 01-.124-1.92 285.254 285.254 0 010-5.394 3.94 3.94 0 01.157-1.062 1.732 1.732 0 011.343-1.288 5.59 5.59 0 013.091.061 1.755 1.755 0 011.282 1.679c.05 1.256.015 2.515.015 3.774h.053zm-1.529.155v-3.633c0-.651-.248-1.127-.97-1.212a4.766 4.766 0 00-1.155.047.754.754 0 00-.622.526 3.103 3.103 0 00-.185.962c-.018 2.211-.018 4.42 0 6.627-.053.414.052.833.294 1.174.404.46.943.457 1.474.402.383-.041.775-.12.949-.523a2.04 2.04 0 00.188-.751c.038-1.215.03-2.415.03-3.618h-.003zm13.498-.202c0-1.036-.02-2.072 0-3.108a4.7 4.7 0 01.213-1.227 1.522 1.522 0 011.034-1.042 5.408 5.408 0 013.318-.02 1.863 1.863 0 011.32 1.808c.021 2.227.056 4.455.044 6.679a6.166 6.166 0 01-.268 1.629 1.595 1.595 0 01-1.179 1.112c-.962.27-1.98.278-2.946.023-.837-.21-1.27-.812-1.415-1.617a8.92 8.92 0 01-.121-1.393c-.011-.963 0-1.91 0-2.844zm4.42.229v-3.61c0-.651-.244-1.174-1.022-1.27-.554-.071-1.123-.097-1.568.352a1.536 1.536 0 00-.344 1.144c-.018 2.25-.018 4.5 0 6.75a1.73 1.73 0 00.341 1.153c.339.414 1.379.452 1.91.244.53-.209.675-.634.681-1.124.011-1.227.002-2.442.002-3.654v.015zm-23.514 16.234c0-1.144-.024-2.289 0-3.43.015-.406.11-.805.28-1.174a1.624 1.624 0 011.164-.901 5.729 5.729 0 013.059.044 1.802 1.802 0 011.311 1.567c.045.319.067.64.065.963v6.069a4.99 4.99 0 01-.151 1.173 1.86 1.86 0 01-1.535 1.467 6.233 6.233 0 01-2.531 0 1.93 1.93 0 01-1.121-.623 1.907 1.907 0 01-.479-1.187c-.065-.922-.053-1.852-.068-2.776 0-.39.006-.793.006-1.192zm4.361.162v-3.695a1.027 1.027 0 00-.904-1.142 3.555 3.555 0 00-.728-.046c-.772 0-1.25.443-1.253 1.203 0 2.441-.017 4.886 0 7.336 0 .587.26 1.054.94 1.154.27.047.544.061.817.044a1.132 1.132 0 001.122-1.242l.006-3.612zM147.176 9.23c-.068.143-.109.24-.156.334l-2.399 4.774a.52.52 0 00-.083.257.522.522 0 00.059.263c.272.54.516 1.094.775 1.643.616 1.283 1.235 2.565 1.869 3.886a3.524 3.524 0 01-1.612.02c-.047 0-.092-.094-.118-.152-.625-1.323-1.248-2.647-1.871-3.974-.124-.267-.242-.534-.371-.798-.092-.19-.672-.338-.82-.194a.439.439 0 00-.056.27v4.46c0 .53.065.459-.477.462h-.678c-.227 0-.324-.086-.324-.34V9.49c0-.235.1-.324.295-.33h1.002c.176 0 .176.11.176.235v4.55c0 .2.059.255.266.273a.574.574 0 00.648-.393 197.16 197.16 0 012.157-4.434.48.48 0 01.312-.185c.465-.09.944-.081 1.406.023z" fill="#E9AB4E"/><path d="M40.255 7.895a1.4 1.4 0 01.295-.317c1.04-.61 2.092-1.207 3.135-1.811.085-.061.161-.133.227-.214.731.167 1.474.323 2.184.513a.619.619 0 01.362.326c.41 1 .79 2.013 1.179 3.017.082.205 0 .276-.174.35a545.15 545.15 0 00-3.645 1.622l-.321.14 1.293 1.098a.958.958 0 00-.247.068c-.525.293-1.046.587-1.559.898-.12.09-.227.195-.321.311l-3.831-2.935 5.796-2.523V8.36c-.669-.103-1.332-.235-2.004-.293-.78-.1-1.579-.126-2.369-.173z" fill="#E0AE6D"/><path d="M131.312 36.86c.192-.925.369-1.809.554-2.689.419-1.966.846-3.93 1.262-5.896.171-.807.327-1.617.486-2.427.035-.173.1-.27.309-.264.501.018 1.002 0 1.503 0 .195 0 .271.068.31.259.256 1.267.524 2.53.789 3.794.393 1.898.793 3.797 1.2 5.7.091.428.159.859.259 1.284.044.182-.015.235-.18.235h-1.235c-.073 0-.185-.12-.206-.205a50.835 50.835 0 01-.448-2.02c-.035-.172-.097-.231-.265-.231h-2.063c-.229 0-.227.15-.253.279a61.666 61.666 0 00-.371 1.887c-.039.214-.106.323-.357.31-.418-.034-.84-.017-1.294-.017zm3.354-9.456h-.05c-.383 2.054-.769 4.079-1.161 6.162h2.183c.195 0 .142-.126.118-.249-.265-1.43-.528-2.861-.79-4.293l-.3-1.62zm-5.929 3.671c1.238.259 1.744 1.174 1.744 2.26.018.526-.002 1.053-.061 1.576-.168 1.124-.799 1.737-1.922 1.954a4.536 4.536 0 01-2.51-.123 2.193 2.193 0 01-1.506-1.858c-.071-.557-.044-1.13-.068-1.693 0-.15.053-.211.206-.208.323.016.647.016.97 0 .271-.02.35.111.353.34v1.027c0 .634.404 1.283.932 1.438 1.001.294 1.877-.117 2.003-1.28a10.66 10.66 0 000-1.713c-.047-.816-.792-1.212-1.52-1.27a19.33 19.33 0 00-1.229-.06c-.156 0-.212-.067-.2-.21a.143.143 0 000-.03c-.024-.643-.024-.637.621-.646.323 0 .645-.02.964-.061.687-.094 1.379-.843 1.311-1.468-.05-.446.021-.907-.07-1.34a1.393 1.393 0 00-2.255-.802 1.512 1.512 0 00-.509 1.144c-.018.241 0 .488 0 .731 0 .188-.077.294-.295.294h-1.031c-.071 0-.204-.088-.204-.13a10 10 0 01.124-1.71c.183-.837.781-1.318 1.612-1.52a5.092 5.092 0 012.687.052 1.91 1.91 0 011.403 1.435c.188.77.196 1.574.023 2.348-.165.757-.698 1.195-1.39 1.468l-.183.055zm68.937-16.263V9.529c0-.26.076-.34.333-.323.314.018.629.018.943 0 .209 0 .268.068.265.27v2.375c0 .228.059.293.295.293.589-.018 1.158-.03 1.735 0 .681.035 1.359.173 1.706.836.192.371.3.778.319 1.195a72.722 72.722 0 010 4.017 2.38 2.38 0 01-.649 1.738 1.706 1.706 0 01-1.137.478c-.84.041-1.683.047-2.525.062h-.94c-.26 0-.342-.08-.339-.338 0-1.76-.006-3.539-.006-5.32zm1.532 1.55v3.022c0 .22.065.293.295.293.342-.014.686 0 1.028 0 .489-.023.955-.114 1.135-.654.087-.249.136-.509.144-.772.015-1.318.038-2.641 0-3.959-.023-.701-.321-1.203-1.246-1.174h-1.061c-.227 0-.295.074-.295.294-.006.968-.006 1.954-.006 2.95h.006zm-16.975-1.545V9.535c0-.261.068-.347.33-.326.295.018.59.018.885 0 .203 0 .271.059.268.267v2.377c0 .223.053.294.294.294.59-.018 1.2-.027 1.798 0a2.066 2.066 0 011.473.586c.306.324.477.75.481 1.195.047 1.25.07 2.5.058 3.747a7.329 7.329 0 01-.218 1.435c-.176.846-.972 1.292-1.768 1.306-1.06.018-2.118.041-3.176.056-.427 0-.427 0-.427-.41l.002-5.245zm1.474 1.54v3.05c0 .185.044.264.244.258h1.091c.521 0 .969-.17 1.149-.725.064-.182.1-.373.106-.566 0-1.388.018-2.776 0-4.164 0-.716-.451-1.113-1.179-1.116h-1.149c-.224 0-.295.07-.295.294.039.992.033 1.975.033 2.97z" fill="#E9AB4E"/><path d="M24.57 22.655c-.459.256-.916.517-1.381.76-.183.09-.37.169-.56.238a6.511 6.511 0 00-.987-3.876c-.36-.495-.76-.96-1.197-1.392.336-.22.67-.449 1.014-.657.398-.243.802-.47 1.211-.692.095-.037.194-.061.295-.074a5.297 5.297 0 002.263 3.246 4.98 4.98 0 001.461-3.48c0-.65-.126-1.298-.194-1.943.333-.18.663-.361.999-.531.247-.13.504-.244.754-.361.758 2.64.54 5.141-1.285 7.336-.394.433-.82.836-1.275 1.206a.385.385 0 01-.345.044 8.502 8.502 0 01-.784-.36l.012.537z" fill="#E2B070"/><path d="M136.708 16.945c.442-2.192.884-4.352 1.311-6.51.065-.322.141-.645.177-.974.026-.234.159-.293.35-.293h.767c.256 0 .353.1.294.367-.168.74-.344 1.467-.515 2.216-.51 2.224-1.005 4.451-1.542 6.673-.126.47-.311.92-.551 1.344-.353.651-.99.863-1.679.88a6.91 6.91 0 01-1.244-.105.343.343 0 01-.212-.232 2.916 2.916 0 010-.56c.118-.012.236-.012.354 0 1.005.108 1.679-.629 1.455-1.615-.453-2.019-.919-4.035-1.376-6.054-.194-.863-.371-1.728-.589-2.588-.059-.244.044-.308.242-.311.344 0 .689-.015 1.031 0a.313.313 0 01.221.193c.383 1.952.754 3.906 1.131 5.87.101.522.201 1.047.295 1.57a.616.616 0 00.08.129z" fill="#E9AB4E"/><path d="M54.748 45.722c.31-.159.616-.311.922-.473.369-.193.734-.393 1.1-.587l.176.693.295-1.274c.245-.114.492-.223.728-.349.59-.293 1.158-.628 1.738-.942l-.61 3.334c-.333 1.813-.663 3.624-.996 5.452h-2.295l-.492-2.685-.536-2.934a2.059 2.059 0 01-.03-.235z" fill="#CC974F"/><path d="M179.522 30.938c0 .636.021 1.273 0 1.907-.023.522-.127 1.036-.589 1.385a1.806 1.806 0 01-.59.32 3.681 3.681 0 01-1.962 0 1.446 1.446 0 01-1.049-1.37 59.354 59.354 0 01-.065-2.894 9.995 9.995 0 01.062-1.488c.121-.854.536-1.262 1.4-1.414a3.804 3.804 0 011.473.026c.919.203 1.223.775 1.3 1.638v1.904l.02-.015zm-1.414.058V29.03c0-.443-.189-.675-.542-.68-.649 0-.867.14-.884.662v3.96a.823.823 0 00.294.587c.545.351 1.105.014 1.108-.629.003-.642.024-1.288.024-1.934z" fill="#E9AB4E"/><path d="M73.718 44.9c.345-.173.699-.331 1.031-.522.964-.543 1.916-1.098 2.877-1.644a.863.863 0 01.28-.061c-.443 1.071-.92 2.13-1.318 3.228a28.56 28.56 0 00-1.329 5.33c-.017.114-.044.228-.07.352h-2.384c.176-1.124.365-2.23.515-3.34.15-1.11.25-2.166.372-3.252a.38.38 0 01.026-.09z" fill="#D7A360"/><path d="M41.363 22.714c-.377.194-.757.384-1.131.587-.507.27-1.008.549-1.509.825 0-.673.032-1.345 0-2.017a13.327 13.327 0 00-1.367-5.438c-.024-.052-.041-.108-.065-.164.354-.223.695-.458 1.055-.663.36-.206.804-.431 1.208-.646.318.734.675 1.453.94 2.204a14.91 14.91 0 01.87 5.312z" fill="#D9A562"/><path d="M184.059 31.169v5.309c0 .252-.062.349-.327.328a5.179 5.179 0 00-.852 0c-.28.024-.365-.064-.365-.352v-8.736c0-.191-.056-.259-.251-.253h-1.326c-.185 0-.262-.047-.256-.246.021-.784-.106-.64.625-.631.669 0 1.143-.238 1.349-.88a.378.378 0 01.413-.294h.589c.265 0 .395.08.392.39 0 1.782.009 3.578.009 5.365zm21.984-16.352V20.1c0 .31-.13.393-.395.39h-.796a.293.293 0 01-.342-.205.282.282 0 01-.005-.144V9.684c0-.466.053-.519.521-.519h.675c.224 0 .342.088.339.352-.003 1.764.003 3.534.003 5.3z" fill="#E9AB4E"/><path d="M42.672 13.893a1.89 1.89 0 01.321-.311 58.185 58.185 0 011.559-.898.963.963 0 01.239-.065c.35.273.695.555 1.055.819 1.055.769 2.124 1.517 3.17 2.298.442.334.837.73 1.253 1.1-.31.197-.616.4-.929.587-.312.188-.692.4-1.034.608a1.4 1.4 0 00-.221.217l-1.302-1.05-4.111-3.305z" fill="#D9A562"/><path d="M39.56 15.196c-.404.214-.814.417-1.208.646-.395.228-.702.44-1.055.663-.466-.766-.884-1.564-1.412-2.29-.527-.724-1.09-1.287-1.668-1.957l-1.007 1.083c-.168-.478-.295-.88-.442-1.25 1.007-.587 2.012-1.174 3.023-1.731.162-.067.331-.117.504-.15-.083.106-.168.208-.254.314.549.587 1.105 1.174 1.615 1.76.764.881 1.404 1.86 1.904 2.912z" fill="#E0AE6D"/><path d="M102.475 46.954a9.076 9.076 0 01-.993-1.06c-.362-.533-.636-1.129-.949-1.698.138-.04.273-.09.404-.15.445-.238.884-.49 1.32-.736.059.131.115.264.177.396a5.076 5.076 0 001.585 2.019c.068.047.254.05.295 0a13.8 13.8 0 00.949-1.397 4.877 4.877 0 00.507-2.316c.155-.044.306-.1.453-.167.478-.252.949-.516 1.421-.778a6.544 6.544 0 01-.263 3.228.684.684 0 00-.226.042c-1.035.586-2.063 1.191-3.097 1.778-.525.308-1.058.57-1.583.84z" fill="#ECBE83"/><path d="M145.631 44.9l-.946 2.545c-.059.152-.121.308-.174.463-.147.417-.159.44-.589.385a.502.502 0 01-.339-.247c-.368-.933-.716-1.878-1.07-2.817a.62.62 0 00-.179-.267v2.48a4.56 4.56 0 000 .496c.029.293-.074.387-.363.372-.404-.02-.407 0-.407-.422v-3.815c0-.238.074-.294.295-.294.799 0 .793 0 1.067.766.312.86.639 1.717.963 2.574.038.088.082.173.13.255.259-.69.501-1.335.746-1.978.182-.484.359-.971.554-1.45a.32.32 0 01.227-.152c.235-.023.471 0 .707 0 .156 0 .203.062.203.211v4.109c0 .152-.056.214-.206.202a2.111 2.111 0 00-.236 0c-.233 0-.333-.079-.33-.328V44.9h-.053zm-10.835 1.013h.754a2.24 2.24 0 01-.415 1.429c-.672.995-1.683 1.209-2.773 1.05-1.194-.173-1.924-.918-2.234-2.077a4.058 4.058 0 01.245-2.87c.922-1.929 3.607-1.97 4.747-.587.165.228.289.483.365.754.074.205 0 .343-.271.349a.592.592 0 01-.654-.39c-.259-.625-.79-.88-1.447-.91a1.863 1.863 0 00-1.688.628c-.342.43-.541.957-.569 1.505-.065.802.024 1.58.56 2.24a1.85 1.85 0 001.612.666 1.588 1.588 0 001.432-.822c.135-.313.247-.636.336-.965z" fill="#E9AB4E"/><path d="M74.744 39.325l-1.035.522-.925.478-1.473-3.571c-.183-.449-.36-.904-.54-1.356.507-.293 1.014-.56 1.527-.833.147-.068.299-.127.454-.176.159.375.324.75.474 1.13a899.674 899.674 0 011.518 3.806z" fill="#CB964E"/><path d="M153.205 44.282c.155-.15.323-.284.503-.402 1.179-.617 2.688-.147 2.997 1.411a3.06 3.06 0 01-.247 2.104 1.743 1.743 0 01-1.586.977 1.87 1.87 0 01-1.635-.692c0 .733-.024 1.373 0 2.013.018.382-.212.294-.427.317-.215.023-.36-.038-.357-.329.015-1.857 0-3.715 0-5.576 0-.105.041-.293.083-.293a1.14 1.14 0 01.571.026c.092.03.071.276.098.444zm1.432 3.436a1.02 1.02 0 001.052-.555 2.371 2.371 0 00.082-2.186 1.184 1.184 0 00-1.155-.716 1.22 1.22 0 00-1.179.687 2.527 2.527 0 00-.126 1.796 1.237 1.237 0 001.326.974zm-3.093-.033c.018.027.03.036.027.041-.044.2.183.493-.189.587-.53.12-.81 0-.949-.358-.02-.05-.044-.1-.082-.184-.347.357-.811.58-1.308.627-.781.088-1.592-.164-1.751-1.132a1.295 1.295 0 01.852-1.35 10.939 10.939 0 011.514-.294c.454-.061.669-.2.69-.53a.643.643 0 00-.628-.76 2.041 2.041 0 00-.801-.001 1.007 1.007 0 00-.56.417c-.265.484-.236.502-.793.413a1.1 1.1 0 01.59-1.217 2.716 2.716 0 012.272-.118 1.06 1.06 0 01.695 1.086v2.377c-.009.376.044.42.421.396zm-1.196-1.67c-.183.045-.33.091-.48.12-.428.083-.864.139-1.285.244a.693.693 0 00-.475.755.655.655 0 00.522.625c.214.028.431.028.645 0 .522-.044 1.052-.508 1.07-.93.012-.262.003-.532.003-.813zm-13.065-.821h-.277c-.501 0-.546.05-.348-.531a1.437 1.437 0 011.282-.977 4.29 4.29 0 011.27.053 1.133 1.133 0 01.996 1.247c0 .722-.039 1.444-.05 2.166-.002.135.023.27.073.396.024.07.136.164.186.152.2-.05.277 0 .265.212-.012.211.047.355-.239.413-.527.109-.78 0-.981-.495a7.8 7.8 0 01-.984.48 1.805 1.805 0 01-1.235 0c-.604-.22-.825-.586-.857-1.22a1.175 1.175 0 01.843-1.174 13.03 13.03 0 011.544-.293c.618-.094.904-.608.512-1.033a1.12 1.12 0 00-.727-.294c-.687-.047-1.097.112-1.273.898zm2.16.804c-.18.053-.328.106-.478.135-.418.085-.846.132-1.258.24a.714.714 0 00.209 1.404h.383c.542-.02 1.12-.517 1.144-.995.011-.253 0-.505 0-.784zm22.419 1.688a.572.572 0 01.026.044c-.05.196.183.49-.194.587-.531.117-.808 0-.949-.358-.018-.053-.044-.103-.08-.188a2.087 2.087 0 01-1.311.634c-.778.085-1.624-.162-1.748-1.198a1.275 1.275 0 01.855-1.29 11.86 11.86 0 011.518-.294c.448-.062.663-.203.683-.534.024-.44-.182-.667-.627-.77a1.397 1.397 0 00-1.023.106c-.159.088-.356.256-.38.411-.059.37-.262.405-.554.37l-.197-.018a1.097 1.097 0 01.527-1.2 1.77 1.77 0 01.734-.293 5.618 5.618 0 011.423.088 1.07 1.07 0 01.86 1.138v2.348c.003.4.056.44.437.417zm-1.2-1.67c-.18.044-.327.09-.477.117-.419.082-.846.13-1.255.241a.708.708 0 00-.466.415.718.718 0 00.038.621c.195.393.554.373.911.37a1.177 1.177 0 001.249-1.227v-.537z" fill="#E9AB4E"/><path d="M96.981 38.497c-.433.238-.866.481-1.305.713-.148.069-.3.13-.454.182a5.99 5.99 0 01-.295-2.626c.071-.587.212-1.174.324-1.761.342-.223.675-.455 1.026-.66.628-.373 1.267-.728 1.903-1.09a.691.691 0 01.195-.037c-.026.038-.05.082-.08.12a6.376 6.376 0 00-1.314 5.16z" fill="#D9A562"/><path d="M102.251 43.316c-.439.246-.884.499-1.32.736-.131.06-.266.11-.404.15a6.322 6.322 0 01-.515-2.266c-.018-.2-.039-.399-.062-.651a7.514 7.514 0 01-2.77 1.256c.221-.192.454-.37.698-.534a329.164 329.164 0 013.681-2.125c.165-.08.337-.149.512-.205a7.9 7.9 0 00.18 3.639zm5.385-2.23c-.471.26-.943.525-1.42.777a3.35 3.35 0 01-.454.167c-.035-.428-.059-.857-.115-1.28a5.562 5.562 0 00-.94-2.309c.421-.243.852-.472 1.261-.736.119-.11.219-.24.295-.382a6.024 6.024 0 011.164 2.407c.13.434.144.895.209 1.356z" fill="#E5B577"/><path d="M102.477 46.955c.524-.276 1.057-.537 1.573-.828a253.717 253.717 0 003.097-1.778.695.695 0 01.227-.041 7.205 7.205 0 01-2.584 3.612c-.295.217-.51.294-.822.065-.484-.352-.993-.681-1.491-1.03z" fill="#F0C389"/><path d="M177.394 36.8h-1.853c-.186 0-.268-.046-.257-.246a5.862 5.862 0 000-.701c0-.185.068-.232.242-.232h3.766c.174 0 .25.047.242.232a5.862 5.862 0 000 .701c0 .2-.071.25-.257.247-.636-.006-1.264 0-1.883 0zm-52.98 9.227v-1.995c0-.191.062-.253.253-.25.855 0 1.709.015 2.561 0 .295 0 .25.159.259.338.009.179 0 .329-.274.32-.607-.02-1.217 0-1.827 0-.209 0-.265.067-.265.27v3.254c0 .294-.136.294-.357.294-.221 0-.377.023-.365-.294.032-.645.015-1.303.015-1.937zm84.43-39.337c.233-.013.467-.013.701 0 .074 0 .171.127.192.209.182.819 1.317 1.012 1.835.537.188-.224.345-.472.469-.737h.745c-.012.45-.193.878-.508 1.2a1.805 1.805 0 01-1.189.544c-1.414.067-2.107-.464-2.245-1.752zm-80.508 40.617c.568 0 .495-.07.498.47.003.54 0 .527-.54.527h-.206c-.186.021-.28-.04-.256-.243a2.842 2.842 0 000-.261c.009-.57-.077-.484.504-.493z" fill="#E9AB4E"/></g><defs><clipPath id="clip0_86937_11"><path fill="#fff" d="M0 0h218v53H0z"/></clipPath></defs></svg>